Coordinates
version=1
nRows=8
nColumns=27
inDegrees=yes

Units are S.I. units (second, meters, Newtons, ...)
If the header above contains a line with 'inDegrees', this indicates whether rotational values are in degrees (yes) or radians (no).

endheader
time	pelvis_rotation	pelvis_tilt	pelvis_list	pelvis_tx	pelvis_ty	pelvis_tz	hip_flexion_r	hip_adduction_r	hip_rotation_r	knee_angle_r	knee_rotation_r	knee_adduction_r	knee_angle_r_beta	ankle_angle_r	subtalar_angle_r	mtp_angle_r	hip_flexion_l	hip_adduction_l	hip_rotation_l	knee_angle_l	knee_rotation_l	knee_adduction_l	knee_angle_l_beta	ankle_angle_l	subtalar_angle_l	mtp_angle_l
      5.33500000	      6.57169283	    -32.21100842	      5.65666575	     -0.00748042	      0.66202372	     -1.17775825	     94.70984222	    -42.31746286	      1.88777504	     74.78370828	      0.00000000	      9.77735251	      1.30522194	      6.55751199	      0.00000000	      0.00000000	     91.68548314	    -23.71837835	      0.87320445	     69.89829948	      0.00000000	     -9.86611437	      1.21995547	      5.88696218	      0.00000000	      0.00000000
      5.34000000	      6.23618065	    -32.22974579	      5.35877975	     -0.00718165	      0.66292936	     -1.17780257	     94.30680226	    -41.94076291	      1.61588589	     74.52435764	      0.00000000	      9.58490349	      1.30069541	      6.47511823	      0.00000000	      0.00000000	     91.62317764	    -23.98853720	      1.00974088	     69.80275739	      0.00000000	     -9.74926384	      1.21828794	      5.84873743	      0.00000000	      0.00000000
      5.34500000	      6.58238533	    -32.09692159	      5.51890630	     -0.00634473	      0.66358883	     -1.17817114	     94.04230425	    -42.44895156	      1.35922240	     74.44912765	      0.00000000	      9.78016506	      1.29938240	      6.49910080	      0.00000000	      0.00000000	     91.37477332	    -23.65362204	      0.93455078	     69.70452835	      0.00000000	     -9.86604241	      1.21657352	      5.90800617	      0.00000000	      0.00000000
      5.35000000	      6.15923396	    -31.99510819	      5.50040613	     -0.00599789	      0.66440243	     -1.17823926	     93.90197768	    -41.97662481	      1.59820223	     74.25503989	      0.00000000	      9.59188484	      1.29599493	      6.41198831	      0.00000000	      0.00000000	     90.96350622	    -24.02787400	      0.64456422	     69.56071397	      0.00000000	     -9.75030338	      1.21406349	      5.91248504	      0.00000000	      0.00000000
      5.35500000	      6.44581544	    -31.85849484	      5.54235929	     -0.00516043	      0.66509000	     -1.17855738	     93.50814674	    -42.41898300	      1.21447598	     74.14906256	      0.00000000	      9.78426653	      1.29414528	      6.42670113	      0.00000000	      0.00000000	     90.75753357	    -23.74054446	      0.68247911	     69.47565261	      0.00000000	     -9.86631778	      1.21257889	      5.98377985	      0.00000000	      0.00000000
      5.36000000	      6.00493348	    -31.79347225	      5.53563662	     -0.00485804	      0.66575729	     -1.17858510	     93.46444909	    -41.91352659	      1.51915923	     73.99656993	      0.00000000	      9.59476347	      1.29148378	      6.33327003	      0.00000000	      0.00000000	     90.41277915	    -24.15603050	      0.35932422	     69.37036723	      0.00000000	     -9.75041456	      1.21074131	      5.94657154	      0.00000000	      0.00000000
      5.36500000	      6.35651107	    -31.67384385	      5.48915739	     -0.00398810	      0.66638224	     -1.17886448	     92.97093477	    -42.44058008	      0.93313898	     73.89535380	      0.00000000	      9.78606614	      1.28971723	      6.35689819	      0.00000000	      0.00000000	     90.32152892	    -23.81089385	      0.55683945	     69.31271752	      0.00000000	     -9.86671978	      1.20973513	      5.99640103	      0.00000000	      0.00000000
      5.37000000	      5.85639990	    -31.60429869	      5.05820288	     -0.00362930	      0.66712894	     -1.17881065	     92.43185035	    -41.90044189	      0.60930450	     73.65213267	      0.00000000	      9.59965554	      1.28547222	      6.28460862	      0.00000000	      0.00000000	     90.21007538	    -24.26764501	      0.72188502	     69.27600729	      0.00000000	     -9.75113246	      1.20909442	      5.96677003	      0.00000000	      0.00000000
